<svg version="1.1" id="nav_icon_logo" xmlns="http://www.w3.org/2000/svg" xmlns:xlink="http://www.w3.org/1999/xlink" x="0px" y="0px" viewBox="0 0 501.2 180.9" enable-background="new 0 0 501.2 180.9" xml:space="preserve">
        <g>
          <path fill="#FFFFFF" d="M0,2.8h47.4v170H0V2.8z"></path>
          <path fill="#FFFFFF" d="M184.1,120c-8.1,8.9-19.7,14.5-32.7,14.5c-24.3,0-44-19.7-44-44s19.7-44,44-44c13,0,24.6,5.6,32.7,14.5
            c5.3-15.2,14.5-28.6,26.4-39C194.7,8.3,174,0,151.4,0c-50,0-90.5,40.5-90.5,90.5c0,50,40.5,90.5,90.5,90.5c22.6,0,43.2-8.3,59.1-22
            C198.6,148.6,189.3,135.2,184.1,120z"></path>
          <circle fill="#79BE43" cx="269.6" cy="90.5" r="44"></circle>
          <path fill="#FFFFFF" d="M454.5,2.8v89.8L384.6,2.8h-44v31.7c12.1,15.4,19.4,34.8,19.4,56s-7.3,40.6-19.4,56v26.4h46.6V79.6
            l72.6,93.2h41.3V2.8H454.5z"></path>
        </g>
        </svg>
